<?xml version="1.0" standalone="no"?>
<!DOCTYPE svg PUBLIC "-//W3C//DTD SVG 20010904//EN"
 "http://www.w3.org/TR/2001/REC-SVG-20010904/DTD/svg10.dtd">
<svg version="1.0" xmlns="http://www.w3.org/2000/svg"
 width="736.000000pt" height="736.000000pt" viewBox="0 0 736.000000 736.000000"
 preserveAspectRatio="xMidYMid meet">
<metadata>
Created by potrace 1.14, written by Peter Selinger 2001-2017
</metadata>
<g transform="translate(0.000000,736.000000) scale(0.100000,-0.100000)"
fill="#000000" stroke="none">
<path d="M0 3680 l0 -3680 3680 0 3680 0 0 3680 0 3680 -3680 0 -3680 0 0
-3680z m2497 2344 c-3 -3 -12 -4 -19 -1 -8 3 -5 6 6 6 11 1 17 -2 13 -5z
m1679 -24 c368 -29 677 -129 909 -295 104 -74 155 -123 224 -216 137 -183 237
-438 272 -699 20 -142 17 -450 -5 -590 -39 -252 -157 -511 -320 -703 -160
-188 -483 -367 -806 -446 -190 -46 -260 -51 -725 -54 l-430 -2 -5 -840 c-6
-948 2 -870 -85 -921 -63 -36 -160 -53 -350 -60 -268 -10 -450 14 -537 71 -74
49 -68 -165 -68 2335 0 2020 1 2254 15 2288 29 67 85 113 162 131 54 13 1591
13 1749 1z m-1873 -4785 c-3 -9 -8 -14 -10 -11 -3 3 -2 9 2 15 9 16 15 13 8
-4z"/>
<path d="M3298 5114 c-5 -4 -8 -279 -8 -611 l0 -603 368 0 c334 0 376 2 446
20 78 20 153 49 194 76 20 13 21 18 10 32 -12 15 -11 16 5 3 16 -13 23 -10 67
34 60 59 105 155 127 267 23 121 14 316 -20 420 -47 145 -112 220 -252 289
-142 69 -158 71 -565 76 -201 3 -368 2 -372 -3z m1143 -947 c-10 -9 -11 -8 -5
6 3 10 9 15 12 12 3 -3 0 -11 -7 -18z m-21 -37 c-6 -11 -13 -20 -16 -20 -2 0
0 9 6 20 6 11 13 20 16 20 2 0 0 -9 -6 -20z m-40 -54 c0 -2 -8 -10 -17 -17
-16 -13 -17 -12 -4 4 13 16 21 21 21 13z"/>
</g>
</svg>
